<?xml version="1.0" encoding="utf-8"?>
<!-- Generator: Adobe Illustrator 16.0.0, SVG Export Plug-In . SVG Version: 6.00 Build 0)  -->
<!DOCTYPE svg PUBLIC "-//W3C//DTD SVG 1.1//EN" "http://www.w3.org/Graphics/SVG/1.1/DTD/svg11.dtd">
<svg version="1.1" id="Layer_1" xmlns="http://www.w3.org/2000/svg" xmlns:xlink="http://www.w3.org/1999/xlink" x="0px" y="0px"
	 width="125.06px" height="45.9px" viewBox="0 0 125.06 45.9" enable-background="new 0 0 125.06 45.9" xml:space="preserve">
<g>
	<path d="M55.224,28.873v-0.527c1.188-0.152,1.357-0.303,1.112-1.038s-0.622-1.754-1.037-2.904h-4.017
		c-0.302,0.849-0.584,1.641-0.83,2.433c-0.415,1.188-0.245,1.377,1.169,1.51v0.527h-4.093v-0.527
		c1.188-0.17,1.453-0.283,2.112-1.943l3.904-9.902l0.584-0.17c1.169,3.244,2.433,6.828,3.64,10.109
		c0.604,1.623,0.849,1.793,2.075,1.906v0.527H55.224z M53.375,18.783h-0.038c-0.604,1.622-1.207,3.263-1.773,4.809h3.47
		L53.375,18.783z"/>
	<path d="M71.312,17.142c-1.282,0.151-1.527,0.321-2.244,2.018c-0.51,1.226-2.508,6.016-3.923,9.902H64.56
		c-1.263-3.451-2.81-7.507-3.904-10.241c-0.547-1.415-0.849-1.565-1.961-1.66v-0.547h4.621v0.528
		c-1.339,0.151-1.414,0.283-1.112,1.113c0.49,1.339,1.867,4.979,3.13,8.224h0.037c0.943-2.357,2.377-6.036,2.98-7.922
		c0.358-1.075,0.245-1.226-1.282-1.415v-0.528h4.243V17.142z"/>
	<path d="M81.91,25.893c-0.112,0.623-0.49,2.396-0.66,2.98h-9.091v-0.527c1.717-0.133,1.867-0.283,1.867-1.811v-7.507
		c0-1.698-0.15-1.754-1.621-1.886v-0.528h8.411c0,0.471,0.095,1.754,0.151,2.716l-0.547,0.094c-0.17-0.792-0.359-1.207-0.604-1.622
		c-0.265-0.396-0.773-0.528-2.132-0.528h-1.433c-0.586,0-0.623,0.038-0.623,0.604v4.281h1.773c1.697,0,1.791-0.15,2.036-1.414h0.548
		v3.621h-0.548c-0.245-1.357-0.377-1.471-2.019-1.471H75.63v3.564c0,0.887,0.113,1.283,0.453,1.527
		c0.357,0.227,1.018,0.246,1.961,0.246c1.434,0,1.961-0.151,2.377-0.643c0.32-0.377,0.678-1.018,0.924-1.771L81.91,25.893z"/>
	<path d="M99.563,17.142c-1.283,0.151-1.527,0.321-2.244,2.018c-0.51,1.226-2.509,6.016-3.924,9.902h-0.584
		c-1.264-3.451-2.811-7.507-3.904-10.241c-0.547-1.415-0.849-1.565-1.961-1.66v-0.547h4.62v0.528
		c-1.339,0.151-1.415,0.283-1.112,1.113c0.49,1.339,1.867,4.979,3.131,8.224h0.037c0.943-2.357,2.377-6.036,2.98-7.922
		c0.357-1.075,0.244-1.226-1.283-1.415v-0.528h4.244V17.142z"/>
	<path d="M112.425,22.593c0,4.073-2.848,6.563-6.299,6.563c-3.414,0-6.129-2.66-6.129-6.281c0-3.395,2.376-6.544,6.336-6.544
		C109.54,16.331,112.425,18.82,112.425,22.593z M101.921,22.348c0,3.545,1.942,6.129,4.602,6.129c2.094,0,3.979-1.754,3.979-5.375
		c0-3.979-2.075-6.092-4.546-6.092C103.845,17.01,101.921,18.82,101.921,22.348z"/>
	<path d="M120.102,28.873v-0.527c1.169-0.133,1.302-0.303,0.942-0.925c-0.471-0.773-1.32-2.188-2.508-4.036
		c-0.905,1.396-1.678,2.697-2.281,3.81c-0.453,0.812-0.359,0.999,0.904,1.151v0.527h-4.318v-0.527
		c1.074-0.113,1.659-0.359,2.207-1.076c0.451-0.584,1.433-1.941,3.073-4.508c-0.98-1.584-1.866-2.979-2.526-4.036
		c-0.793-1.226-1.057-1.434-2.396-1.584v-0.528h4.621v0.528c-1.131,0.132-1.169,0.302-0.887,0.792
		c0.623,1.075,1.34,2.169,2.17,3.433c0.791-1.226,1.357-2.131,1.848-3.055c0.472-0.83,0.377-1.019-0.887-1.169v-0.528h4.319v0.528
		c-1.396,0.151-1.754,0.34-2.603,1.452c-0.396,0.547-1.019,1.434-2.301,3.376c1.037,1.622,2.074,3.263,2.979,4.64
		c0.868,1.32,1.302,1.604,2.603,1.736v0.527H120.102z"/>
</g>
<g>
	<path fill-rule="evenodd" clip-rule="evenodd" fill="#FFFFFF" d="M37.107,10.776c-0.73-0.957-1.87-1.176-2.923-1.04
		c-1.556,0.2-2.52,1.492-3.339,2.979c-0.087-1.063-0.535-2.176-1.517-2.249c-1.358-0.049-1.233,0.809-3.689,0.468
		c1.269,1.541,2.3,0.501,3.023,1.035c1.006,0.748,0.908,1.835,0.214,3.211l-6.245,12.392c-0.909,1.828-1.799,3.604-2.442,5.542
		c-0.103,0.312-0.167,0.552-0.211,0.746c-0.018,0-0.042,0-0.063,0c-0.047,0-0.089-0.003-0.134-0.003
		c-0.047-0.218-0.113-0.442-0.162-0.628c-0.617-2.197-1.991-4.381-3.05-6.396l-3.934-7.441c-0.47-0.888-1.187-2.392-1.746-3.563
		c-0.844-1.774-1.47-3.836,0.603-3.937c1.545-0.073,1.467-0.95,2.044-1.571c-0.04-0.28-0.973,0.835-2.267,0.316
		c-1.447-0.579-2.206-0.229-2.589,0.501c-0.312,0.594,0,1.582-0.021,2.046c-0.65-0.809-1.066-1.447-1.578-1.99
		c-0.904-0.962-2.195-1.73-3.551-1.35c-0.599,0.169-1.138,0.543-1.499,1.106c-0.73,1.131-0.454,3.18,1.133,3.397
		c0.508,0.069,1.211-0.233,1.405-1.044c0.198-0.813-0.492-1.583-1.454-1.127c-0.194,0.099-0.305,0.278-0.354,0.548
		c0.067-1.077,0.955-1.362,1.743-1.133c0.939,0.271,1.634,1.307,2.108,2.093c0.296,0.492,0.595,1.051,0.984,1.734
		c0.73,1.287,1.665,3.053,2.631,4.753l6.328,11.456c0.427,0.777,0.768,1.565,1.035,2.291c-0.447,0.138-0.657,0.59-0.654,1.122
		c0.004,0.51,0.358,0.951,0.777,1.033c0.009,0.57-0.053,1.115-0.138,1.736c-0.151,1.145-0.614,2.08-2.015,2.273
		c0.779-0.545,0.701-1.26,0.438-1.616c-0.296-0.401-0.695-0.525-1.08-0.483c-1.057,0.132-1.478,1.167-1.255,2.106
		c0.243,1.056,1.245,1.472,2.235,1.538c0.557,0.036,1.106-0.096,1.781-0.432c0.982-0.574,1.971-1.394,2.171-3.244
		c0.252,0.875,0.555,1.656,1.1,2.318c0.81,0.975,2.042,1.618,3.255,1.289c0.782-0.212,1.414-0.835,1.519-1.639
		c0.078-0.59-0.143-1.073-0.474-1.403c-0.559-0.55-1.601-0.579-1.988,0.21c-0.209,0.42-0.151,0.995,0.147,1.155
		c-1.34-0.477-1.458-2.167-1.532-2.917c-0.031-0.324-0.025-0.614,0.006-0.895c0.398-0.149,0.744-0.621,0.719-1.063
		c-0.022-0.348-0.076-0.774-0.403-1.004c0.173-0.559,0.501-1.231,0.839-1.896l8.828-17.38c0.552-1.087,1.222-2.462,2.391-3.044
		c0.53-0.26,1.104-0.303,1.619,0.217c0.385,0.389,0.387,0.922,0.354,1.242c-0.265-0.543-0.595-0.732-0.919-0.715
		c-0.792,0.04-1.167,0.922-0.677,1.576c0.18,0.238,0.476,0.4,0.786,0.488c0.401,0.096,0.772,0.053,1.118-0.189
		C37.583,13.561,37.888,11.807,37.107,10.776z"/>
	<path d="M23.552,41.8c-0.971,0-1.961-0.523-2.716-1.432c-0.45-0.544-0.728-1.156-0.94-1.768c-0.345,1.488-1.262,2.215-2.139,2.725
		c-0.704,0.354-1.285,0.494-1.868,0.454c-1.282-0.085-2.148-0.688-2.371-1.652c-0.14-0.587-0.038-1.197,0.265-1.636
		c0.261-0.37,0.65-0.597,1.118-0.654c0.058-0.005,0.116-0.012,0.169-0.012c0.296,0,0.717,0.098,1.053,0.557
		c0.169,0.233,0.247,0.557,0.193,0.857c-0.026,0.16-0.091,0.36-0.251,0.572c0.791-0.274,1.216-0.918,1.363-2.02
		c0.076-0.565,0.138-1.078,0.138-1.602c-0.443-0.155-0.777-0.632-0.777-1.148c-0.002-0.576,0.223-1.013,0.612-1.209
		c-0.305-0.793-0.625-1.491-0.975-2.131L10.101,20.25c-0.501-0.88-0.98-1.759-1.447-2.614c-0.428-0.779-0.833-1.518-1.187-2.142
		c-0.149-0.259-0.282-0.499-0.409-0.73c-0.209-0.374-0.392-0.699-0.575-1.002c-0.519-0.861-1.169-1.78-2.019-2.025
		c-0.154-0.043-0.308-0.067-0.459-0.067c-0.336,0-0.608,0.109-0.797,0.313c0.51-0.188,1.008-0.063,1.305,0.311
		c0.223,0.285,0.3,0.668,0.207,1.047c-0.216,0.889-0.986,1.24-1.574,1.16c-0.639-0.087-1.142-0.468-1.42-1.068
		c-0.361-0.786-0.287-1.837,0.18-2.563c0.365-0.563,0.926-0.982,1.583-1.162c0.25-0.072,0.508-0.109,0.764-0.109
		c1.334,0,2.414,0.935,2.937,1.494c0.323,0.342,0.601,0.712,0.924,1.14c0.113,0.151,0.231,0.308,0.354,0.468
		c0-0.019-0.002-0.036-0.004-0.057c-0.065-0.5-0.154-1.121,0.086-1.571c0.483-0.913,1.416-1.113,2.772-0.57
		c0.216,0.083,0.434,0.127,0.655,0.127c0.499,0,0.906-0.22,1.173-0.362c0.156-0.087,0.25-0.141,0.343-0.141
		c0.1,0,0.18,0.073,0.198,0.174c0.007,0.047-0.009,0.094-0.038,0.129c-0.149,0.16-0.256,0.336-0.36,0.525
		c-0.292,0.51-0.592,1.033-1.792,1.094c-0.543,0.026-0.906,0.193-1.093,0.505c-0.34,0.57-0.138,1.621,0.619,3.218
		c0.634,1.331,1.292,2.705,1.739,3.553l3.937,7.442c0.233,0.451,0.48,0.896,0.741,1.369c0.906,1.636,1.839,3.332,2.322,5.058
		l0.013,0.05c0.034,0.119,0.067,0.249,0.103,0.385c0.047-0.176,0.098-0.361,0.167-0.559c0.628-1.897,1.48-3.611,2.378-5.422
		l0.071-0.138l6.245-12.395c0.734-1.456,0.683-2.387-0.165-3.019c-0.136-0.101-0.294-0.146-0.532-0.146
		c-0.096,0-0.2,0.009-0.309,0.014c-0.123,0.009-0.247,0.018-0.381,0.018c-0.485,0-1.136-0.106-1.828-0.95
		c-0.04-0.045-0.046-0.113-0.016-0.172c0.031-0.051,0.089-0.08,0.151-0.071c0.383,0.052,0.713,0.078,1.011,0.078
		c0.706,0,1.066-0.149,1.416-0.294c0.345-0.141,0.67-0.273,1.247-0.252c0.942,0.071,1.427,0.98,1.601,1.936
		c0.739-1.263,1.71-2.47,3.229-2.666c0.198-0.023,0.394-0.035,0.579-0.035c1.062,0,1.919,0.392,2.482,1.133
		c0.385,0.511,0.547,1.223,0.434,1.953c-0.114,0.755-0.49,1.404-1.033,1.79c-0.247,0.176-0.523,0.265-0.822,0.265l0,0
		c-0.133,0-0.271-0.016-0.418-0.051c-0.374-0.104-0.683-0.296-0.871-0.546c-0.269-0.356-0.323-0.814-0.146-1.195
		c0.171-0.365,0.521-0.599,0.937-0.623c0.016,0,0.031,0,0.051,0c0.198,0,0.463,0.068,0.715,0.352
		c-0.042-0.252-0.143-0.461-0.303-0.621c-0.401-0.407-0.873-0.466-1.44-0.188c-1.091,0.544-1.748,1.839-2.276,2.879l-0.049,0.103
		l-8.83,17.377c-0.307,0.61-0.619,1.245-0.799,1.779c0.296,0.268,0.358,0.692,0.379,1.044c0.024,0.461-0.296,0.969-0.729,1.178
		c-0.024,0.271-0.022,0.517,0.002,0.772l0.009,0.078c0.06,0.639,0.178,1.859,0.971,2.467c-0.049-0.27-0.002-0.581,0.121-0.835
		c0.216-0.44,0.632-0.692,1.142-0.692c0.396,0,0.806,0.167,1.084,0.445c0.412,0.403,0.597,0.948,0.521,1.529
		c-0.111,0.833-0.748,1.525-1.627,1.762C24.022,41.769,23.789,41.8,23.552,41.8z M19.852,37.806c0.064,0,0.125,0.039,0.145,0.104
		c0.222,0.776,0.507,1.587,1.073,2.269c0.684,0.826,1.614,1.32,2.482,1.32c0.209,0,0.419-0.027,0.617-0.085
		c0.761-0.205,1.311-0.797,1.405-1.507c0.064-0.488-0.087-0.942-0.432-1.28c-0.225-0.223-0.552-0.358-0.873-0.358
		c-0.392,0-0.708,0.195-0.875,0.525c-0.174,0.354-0.127,0.844,0.084,0.955c0.071,0.037,0.1,0.125,0.069,0.195
		c-0.033,0.074-0.113,0.109-0.191,0.083c-1.382-0.494-1.543-2.167-1.619-2.966l-0.009-0.08c-0.029-0.301-0.029-0.597,0.004-0.924
		c0.004-0.054,0.042-0.103,0.096-0.125c0.358-0.131,0.644-0.55,0.621-0.915c-0.018-0.336-0.069-0.701-0.336-0.884
		c-0.053-0.04-0.078-0.109-0.056-0.174c0.178-0.572,0.512-1.262,0.848-1.921l8.877-17.476c0.547-1.08,1.231-2.429,2.411-3.012
		c0.681-0.337,1.298-0.252,1.79,0.246c0.32,0.323,0.454,0.779,0.401,1.363c-0.009,0.064-0.06,0.12-0.123,0.133
		c-0.069,0.012-0.134-0.021-0.163-0.082c-0.216-0.434-0.483-0.647-0.779-0.635c-0.307,0.016-0.557,0.179-0.681,0.448
		c-0.129,0.284-0.087,0.618,0.116,0.89c0.145,0.192,0.403,0.35,0.706,0.435c0.114,0.029,0.234,0.04,0.343,0.04l0,0
		c0.238,0,0.45-0.064,0.648-0.207c0.477-0.338,0.809-0.919,0.911-1.592c0.098-0.65-0.04-1.277-0.378-1.726
		c-0.639-0.837-1.567-1.015-2.242-1.015c-0.176,0-0.354,0.011-0.539,0.035c-1.541,0.198-2.46,1.514-3.229,2.903
		c-0.033,0.058-0.1,0.089-0.162,0.075c-0.069-0.016-0.114-0.07-0.12-0.135c-0.078-0.976-0.477-2.045-1.376-2.113
		c-0.029,0-0.063-0.002-0.096-0.002c-0.45,0-0.715,0.108-1.018,0.233c-0.358,0.151-0.766,0.313-1.532,0.313
		c-0.201,0-0.415-0.009-0.646-0.028c0.501,0.477,0.949,0.548,1.327,0.548c0.125,0,0.245-0.01,0.36-0.018
		c0.118-0.008,0.223-0.016,0.33-0.016c0.205,0,0.468,0.023,0.71,0.202c1.282,0.953,0.759,2.394,0.256,3.397l-6.314,12.531
		c-0.895,1.804-1.741,3.505-2.365,5.379c-0.086,0.268-0.158,0.51-0.207,0.737c-0.015,0.064-0.075,0.115-0.146,0.115h-0.063
		c-0.047,0-0.091,0-0.136-0.002c-0.069,0-0.131-0.049-0.143-0.118c-0.044-0.198-0.1-0.396-0.149-0.572l-0.013-0.042
		c-0.472-1.696-1.4-3.375-2.295-5c-0.263-0.473-0.508-0.922-0.746-1.37L12.5,19.465c-0.452-0.857-1.109-2.232-1.748-3.57
		c-0.813-1.715-1.006-2.826-0.604-3.5c0.238-0.401,0.688-0.617,1.336-0.65c1.031-0.052,1.267-0.461,1.545-0.941
		c0.034-0.065,0.074-0.135,0.114-0.199c-0.281,0.146-0.684,0.323-1.169,0.323c-0.256,0-0.517-0.052-0.764-0.149
		C10.749,10.593,10.338,10.5,10,10.5c-0.546,0-0.938,0.229-1.187,0.708c-0.191,0.367-0.116,0.936-0.056,1.395
		c0.031,0.23,0.058,0.432,0.051,0.588c-0.002,0.066-0.044,0.117-0.1,0.135c-0.063,0.022-0.129,0-0.169-0.049
		c-0.249-0.312-0.463-0.592-0.668-0.863c-0.316-0.424-0.594-0.788-0.901-1.113c-0.492-0.523-1.496-1.402-2.719-1.402
		c-0.229,0-0.458,0.033-0.684,0.098c-0.583,0.162-1.086,0.532-1.411,1.035c-0.412,0.644-0.481,1.576-0.161,2.271
		c0.165,0.36,0.505,0.806,1.189,0.901c0.459,0.06,1.069-0.223,1.242-0.933c0.071-0.285,0.011-0.582-0.156-0.791
		c-0.236-0.303-0.654-0.371-1.088-0.164c-0.145,0.068-0.231,0.209-0.276,0.44c-0.013,0.077-0.089,0.131-0.165,0.12
		c-0.08-0.012-0.138-0.082-0.134-0.158c0.067-0.995,0.764-1.35,1.396-1.35c0.178,0,0.363,0.027,0.541,0.078
		c0.951,0.276,1.643,1.247,2.195,2.16c0.187,0.305,0.37,0.635,0.579,1.015c0.125,0.228,0.263,0.466,0.41,0.724
		c0.354,0.626,0.759,1.365,1.187,2.148c0.465,0.851,0.948,1.73,1.445,2.609l6.325,11.452c0.383,0.694,0.724,1.449,1.049,2.311
		c0.013,0.043,0.009,0.085-0.004,0.12c-0.02,0.038-0.054,0.064-0.091,0.078c-0.499,0.153-0.55,0.732-0.55,0.978
		c0.002,0.423,0.289,0.816,0.652,0.886c0.071,0.019,0.122,0.078,0.122,0.147c0.009,0.583-0.058,1.14-0.138,1.756
		c-0.123,0.925-0.479,2.174-2.146,2.402c-0.067,0.01-0.134-0.026-0.16-0.091c-0.024-0.069-0.002-0.138,0.051-0.181
		c0.316-0.213,0.503-0.482,0.552-0.768c0.038-0.228-0.018-0.463-0.143-0.635c-0.236-0.318-0.565-0.465-0.942-0.421
		c-0.385,0.045-0.699,0.229-0.908,0.528c-0.256,0.365-0.338,0.891-0.223,1.391c0.273,1.178,1.561,1.39,2.099,1.426
		c0.537,0.031,1.053-0.094,1.708-0.419c0.966-0.563,1.893-1.338,2.088-3.126c0.006-0.073,0.064-0.129,0.136-0.131
		C19.841,37.806,19.848,37.806,19.852,37.806z"/>
</g>
<path fill-rule="evenodd" clip-rule="evenodd" d="M23.181,19.766c-0.726-2.509-1.354-5.064-2.053-7.434
	c-0.405-1.367-0.581-2.396-1.465-2.436c-0.951-0.05-1.298,1.068-1.748,2.521c-0.748,2.416-1.5,4.803-2.16,7.339
	C18.233,19.762,20.705,19.764,23.181,19.766L23.181,19.766z M24.372,23.712c-0.113-0.396-0.358-1.042-0.692-1.516
	c-0.465-0.666-0.951-0.889-1.532-0.889c-0.674,0-1.452,0.418-1.554,1.18c-0.071,0.55,0.151,1.207,1.06,1.472
	c0.628,0.101,1.385-0.483,1.165-1.136c-0.069-0.195-0.274-0.258-0.438-0.336c-0.753-0.071-0.575-0.567-0.042-0.548
	c0.625,0.024,1.211,0.65,1.062,1.454c-0.116,0.63-0.617,1.158-1.42,1.176c-0.588-0.021-1.12-0.229-1.603-0.555
	c-0.428-0.273-0.719-0.327-1.347,0.009c-0.592,0.407-1.205,0.608-1.703,0.61c-0.817,0-1.42-0.729-1.352-1.552
	c0.056-0.661,0.625-1.082,1.218-1.101c0.488-0.008,0.31,0.557-0.167,0.553c-0.704-0.012-0.472,1.627,0.637,1.438
	c1.031-0.181,1.287-1.454,0.527-2.198c-0.403-0.403-1.095-0.514-1.739-0.291c-0.599,0.209-1.345,0.955-1.63,1.961
	c-1.175,4.526-1.429,5.613-2.469,10.066c-0.293,1.235-1.451,4.637-6.857,4.648c-1.053,0-2.138-0.016-3.042-0.39
	c-1.231-0.508-1.988-1.579-2.324-2.83c-0.308-1.142-0.067-2.471,0.639-3.228c0.33-0.353,0.831-0.668,1.41-0.822
	c0.959-0.258,1.728,0.031,2.587,0.416c0.664,0.306,1.302,0.595,1.826,0.502c0.443-0.083,0.791-0.417,0.895-0.807
	c0.203-0.728-0.521-1.496-1.222-0.912c-0.216,0.254-0.183,0.567-0.009,0.759c0.189,0.216,0.398,0.345,0.534,0.352
	c-1.033,0.43-1.717-0.416-1.512-1.175c0.49-1.504,3.11-1.069,2.881,0.905c-0.127,1.118-1.207,1.647-2.211,1.552
	c-0.372-0.035-0.772-0.124-1.104-0.263c0.454,0.764,0.233,1.445-0.216,1.886c-0.273,0.266-0.623,0.412-0.966,0.439
	c-0.472,0.037-0.821-1.007,0.045-0.989c0.801-0.491,0.539-1.263-0.058-1.559c-0.51-0.256-1.218-0.096-1.63,0.272
	c-1.191,1.066-0.38,2.818,0.75,3.393c0.938,0.477,2.18,0.472,3.177,0.162c1.703-0.525,2.736-1.58,3.616-3.448
	c1.028-2.18,1.632-4.279,2.342-7.049c0.153-0.605,2.215-8.417,4.161-13.902c0.436-1.234,1.18-3.06,0.634-4.313
	c-0.276-0.635-0.877-1.121-1.85-0.894c-0.806,0.185-1.32,1.181-0.902,2.021c0.185,0.374,0.525,0.628,0.962,0.591
	c0.374-0.031,1.006,0.787-0.016,0.841c-2.52,0.125-3.048-3.041-1.026-4.271c1.303-0.785,3.082,0.123,4.282,0.673
	c1.469,0.681,1.977,0.541,3.259-0.064c0.937-0.562,2.09-1.026,3.092-0.828c1.619,0.322,2.351,2.188,1.507,3.6
	c-0.298,0.501-0.815,0.813-1.347,0.864c-0.532,0.049-0.951-0.581-0.372-0.633c1.084-0.171,1.643-1.502,0.641-2.524
	c-0.819-0.521-2.102-0.305-2.384,1.03c-0.25,1.176,0.425,3.158,0.831,4.279c2.142,5.905,3.7,12.796,5.704,18.77
	c0.692,1.683,0.993,2.627,2.322,4.158c1.051,1.209,3.115,2.031,4.613,1.447c1.427-0.627,1.797-2.328,0.989-3.184
	c-0.626-0.661-1.774-0.705-2.198,0.136c-0.093,0.185-0.093,0.185-0.018,0.732c0.111,0.299,0.859,0.971,0.013,1.069
	c-0.784-0.223-1.456-1.205-0.761-2.213c-0.481,0.202-1.04,0.373-1.545,0.354c-0.639-0.024-1.18-0.32-1.507-0.779
	c-0.258-0.363-0.374-0.846-0.323-1.298c0.08-0.722,0.624-1.298,1.36-1.372c0.583-0.058,1.18,0.221,1.4,0.902
	c0.207,0.757-0.385,1.637-1.331,1.176c0.053-0.099,0.3-0.134,0.465-0.295c0.192-0.187,0.254-0.505,0.049-0.756
	c-0.231-0.301-0.712-0.283-0.989,0.016c-0.483,0.521-0.096,1.498,0.672,1.639c0.764,0.145,1.89-0.466,2.881-0.789
	c2.237-0.728,3.773,1.104,3.582,3.16c-0.191,2.079-1.621,3.537-3.616,3.537c-6.617,0-7.287-2.246-8.033-4.412
	c-0.292-1.292-0.628-2.572-0.971-3.85C25.403,27.238,25.024,25.942,24.372,23.712z"/>
<polygon fill-rule="evenodd" clip-rule="evenodd" fill="#FFFFFF" points="12.153,23.317 14.186,27.019 14.932,24.053 12.963,20.34 
	"/>
<path fill-rule="evenodd" clip-rule="evenodd" d="M19.836,25.163l-0.641,0.014c-0.12,0.022-0.254,0.027-0.383,0.078
	c-0.332,0.138-0.41,0.341-0.434,0.715c-0.02,0.305-0.022,0.541-0.325,0.536c-0.221-0.004-0.129-0.354-0.583-0.278
	c0.214,0.127,0.163,0.316,0.171,0.461c0.025,0.348,0.272,0.432,0.443,0.443c0.336,0.026,0.646-0.191,0.806-0.483
	c-0.403,0.713,0.038,1.069,0.381,1.394c0.221,0.156,0.189,0.559,0.265,0.831c0.067-0.327,0.071-0.64,0.334-0.837
	c0.358-0.406,0.634-0.687,0.32-1.358c0.207,0.3,0.381,0.51,0.617,0.55c0.379,0.089,0.702-0.078,0.755-0.492
	c0.029-0.231-0.1-0.454,0.165-0.595c-0.074-0.167-0.443,0.036-0.495,0.268c-0.038,0.178-0.171,0.212-0.276,0.187
	c-0.256-0.058-0.236-0.324-0.265-0.541C20.623,25.56,20.563,25.279,19.836,25.163z"/>
<path fill-rule="evenodd" clip-rule="evenodd" d="M20.264,42.191l-0.345,0.007l-0.297,0.006c-0.12,0.022-0.253,0.027-0.383,0.078
	c-0.332,0.139-0.41,0.341-0.434,0.715c-0.02,0.305-0.022,0.541-0.325,0.537c-0.22-0.005-0.129-0.354-0.583-0.279
	c0.213,0.127,0.163,0.316,0.171,0.461c0.024,0.348,0.271,0.433,0.443,0.443c0.336,0.027,0.646-0.191,0.806-0.482
	c-0.403,0.712,0.038,1.068,0.381,1.394c0.22,0.155,0.189,0.559,0.265,0.83c0.067-0.327,0.071-0.639,0.334-0.837
	c0.358-0.405,0.635-0.686,0.321-1.358c0.207,0.301,0.38,0.51,0.617,0.55c0.378,0.09,0.701-0.078,0.755-0.492
	c0.029-0.231-0.101-0.454,0.165-0.594c-0.074-0.167-0.443,0.035-0.494,0.267c-0.038,0.179-0.171,0.212-0.276,0.188
	c-0.256-0.058-0.236-0.325-0.265-0.541C21.05,42.587,20.99,42.307,20.264,42.191z"/>
<path fill-rule="evenodd" clip-rule="evenodd" d="M19.148,3.709l0.641-0.014c0.121-0.022,0.254-0.026,0.383-0.078
	c0.332-0.138,0.41-0.34,0.434-0.715c0.02-0.305,0.022-0.541,0.325-0.536c0.22,0.005,0.129,0.354,0.583,0.278
	c-0.213-0.127-0.162-0.316-0.171-0.461c-0.024-0.348-0.271-0.432-0.443-0.443c-0.336-0.026-0.646,0.191-0.806,0.483
	c0.403-0.712-0.038-1.068-0.38-1.394C19.494,0.674,19.525,0.272,19.449,0c-0.067,0.327-0.071,0.639-0.334,0.837
	c-0.358,0.405-0.635,0.686-0.321,1.358c-0.207-0.301-0.38-0.51-0.617-0.551c-0.378-0.089-0.701,0.078-0.754,0.492
	c-0.029,0.231,0.1,0.454-0.165,0.595c0.074,0.167,0.443-0.036,0.494-0.268c0.038-0.178,0.172-0.211,0.276-0.187
	c0.256,0.058,0.236,0.325,0.265,0.541C18.363,3.313,18.423,3.593,19.148,3.709z"/>
</svg>
