<?xml version="1.0" encoding="utf-8"?>
<!-- Generator: Adobe Illustrator 16.0.0, SVG Export Plug-In . SVG Version: 6.00 Build 0)  -->
<!DOCTYPE svg PUBLIC "-//W3C//DTD SVG 1.1//EN" "http://www.w3.org/Graphics/SVG/1.1/DTD/svg11.dtd">
<svg version="1.1" id="Layer_1" xmlns="http://www.w3.org/2000/svg" xmlns:xlink="http://www.w3.org/1999/xlink" x="0px" y="0px"
	 width="26.83px" height="40.14px" viewBox="0 0 26.83 40.14" enable-background="new 0 0 26.83 40.14" xml:space="preserve">
<g>
	<g>
		<path fill="#3C3C3B" d="M25.828,13.417c0,6.855-12.414,25.72-12.414,25.72S1.002,20.272,1.002,13.417S6.558,1.002,13.415,1.002
			C20.271,1.002,25.828,6.561,25.828,13.417z"/>
		<path fill="#FFFFFF" d="M13.415,40.137L13.415,40.137c-0.336,0-0.65-0.168-0.835-0.449C12.065,38.906,0.002,20.49,0.002,13.417
			c0-7.396,6.017-13.414,13.413-13.414c7.397,0,13.414,6.018,13.414,13.414c0,7.073-12.064,25.49-12.578,26.271
			C14.065,39.969,13.751,40.137,13.415,40.137z M13.415,2.002c-6.293,0-11.413,5.12-11.413,11.414
			c0,5.475,8.651,19.527,11.413,23.873c2.762-4.346,11.414-18.4,11.414-23.873C24.828,7.123,19.708,2.002,13.415,2.002z"/>
	</g>
	<g>
		<circle fill="#FFCB00" cx="13.415" cy="11.636" r="4.284"/>
		<path fill="#FFFFFF" d="M13.415,16.92c-2.914,0-5.284-2.37-5.284-5.283c0-2.914,2.37-5.285,5.284-5.285s5.284,2.371,5.284,5.285
			C18.698,14.55,16.328,16.92,13.415,16.92z M13.415,8.352c-1.811,0-3.284,1.474-3.284,3.285c0,1.811,1.473,3.283,3.284,3.283
			c1.811,0,3.284-1.473,3.284-3.283C16.698,9.826,15.226,8.352,13.415,8.352z"/>
	</g>
</g>
</svg>
