<?xml version="1.0" encoding="utf-8"?>
<!-- Generator: Adobe Illustrator 16.0.0, SVG Export Plug-In . SVG Version: 6.00 Build 0)  -->
<!DOCTYPE svg PUBLIC "-//W3C//DTD SVG 1.1//EN" "http://www.w3.org/Graphics/SVG/1.1/DTD/svg11.dtd">
<svg version="1.1" id="Layer_1" xmlns="http://www.w3.org/2000/svg" xmlns:xlink="http://www.w3.org/1999/xlink" x="0px" y="0px"
	 width="51.9px" height="43.51px" viewBox="0 0 51.9 43.51" enable-background="new 0 0 51.9 43.51" xml:space="preserve">
<g>
	<path fill="#3C3C3B" d="M8.197,0L0.001,17.372h1.942l2.713-5.713h7.481l2.742,5.713h1.855L8.626,0H8.197z M5.427,9.971l2.999-6.285
		l2.94,6.285H5.427z"/>
	<polygon fill="#3C3C3B" points="27.61,17.372 35.149,0 19.786,0 27.239,17.372 	"/>
	<polygon fill="#3C3C3B" points="50.206,15.659 42.067,15.659 42.067,9.305 49.925,9.305 49.925,7.59 42.067,7.59 42.067,1.715 
		50.292,1.715 50.292,0 40.354,0 40.354,17.372 50.206,17.372 	"/>
	<polygon fill="#3C3C3B" points="8.234,43.08 8.605,43.08 16.146,25.709 0.781,25.709 	"/>
	<path fill="#3C3C3B" d="M27.34,25.279c-1.627,0-3.141,0.4-4.512,1.201c-1.428,0.828-2.541,1.971-3.313,3.371
		c-0.801,1.428-1.199,2.971-1.199,4.629c0,2.543,0.885,4.686,2.656,6.428c1.77,1.744,3.939,2.602,6.51,2.602
		c2.541,0,4.713-0.857,6.482-2.629c1.742-1.771,2.627-3.914,2.627-6.486c0-2.6-0.885-4.771-2.684-6.514
		C32.137,26.137,29.939,25.279,27.34,25.279z M33.822,38.195c-0.629,1.143-1.541,2.027-2.684,2.656
		c-1.143,0.658-2.371,0.973-3.742,0.973c-2.055,0-3.797-0.715-5.197-2.115c-1.398-1.428-2.113-3.172-2.113-5.229
		c0-1.371,0.344-2.658,0.971-3.771c0.658-1.143,1.543-2.029,2.686-2.715c1.143-0.656,2.369-1,3.684-1s2.541,0.344,3.713,1
		c2.455,1.4,3.654,3.543,3.654,6.4C34.793,35.795,34.479,37.053,33.822,38.195z"/>
	<polygon fill="#3C3C3B" points="51.898,43.08 46.389,34.137 51.557,25.709 39.162,25.709 44.332,34.137 38.791,43.08 	"/>
</g>
</svg>
